G04*
G04 #@! TF.GenerationSoftware,Altium Limited,Altium Designer,18.1.7 (191)*
G04*
G04 Layer_Color=8421504*
%FSLAX25Y25*%
%MOIN*%
G70*
G01*
G75*
%ADD17R,0.04724X0.04724*%
%ADD18R,0.05906X0.06299*%
%ADD19R,0.03543X0.02756*%
%ADD20R,0.02756X0.03543*%
%ADD21R,0.03937X0.02362*%
G04:AMPARAMS|DCode=22|XSize=39.37mil|YSize=39.37mil|CornerRadius=19.68mil|HoleSize=0mil|Usage=FLASHONLY|Rotation=0.000|XOffset=0mil|YOffset=0mil|HoleType=Round|Shape=RoundedRectangle|*
%AMROUNDEDRECTD22*
21,1,0.03937,0.00000,0,0,0.0*
21,1,0.00000,0.03937,0,0,0.0*
1,1,0.03937,0.00000,0.00000*
1,1,0.03937,0.00000,0.00000*
1,1,0.03937,0.00000,0.00000*
1,1,0.03937,0.00000,0.00000*
%
%ADD22ROUNDEDRECTD22*%
%ADD23R,0.03543X0.03937*%
%ADD24R,0.03740X0.03347*%
%ADD25R,0.03150X0.03150*%
%ADD26R,0.05512X0.05118*%
%ADD27R,0.03937X0.03543*%
%ADD28R,0.14961X0.07874*%
%ADD29R,0.05906X0.07874*%
%ADD30R,0.12598X0.06299*%
G04:AMPARAMS|DCode=31|XSize=61.81mil|YSize=16.14mil|CornerRadius=2.02mil|HoleSize=0mil|Usage=FLASHONLY|Rotation=90.000|XOffset=0mil|YOffset=0mil|HoleType=Round|Shape=RoundedRectangle|*
%AMROUNDEDRECTD31*
21,1,0.06181,0.01211,0,0,90.0*
21,1,0.05778,0.01614,0,0,90.0*
1,1,0.00404,0.00605,0.02889*
1,1,0.00404,0.00605,-0.02889*
1,1,0.00404,-0.00605,-0.02889*
1,1,0.00404,-0.00605,0.02889*
%
%ADD31ROUNDEDRECTD31*%
G36*
X325571Y224311D02*
X325571Y218209D01*
X315374Y218209D01*
X315374Y224311D01*
X325571Y224311D01*
D02*
G37*
D17*
X279921Y231102D02*
D03*
Y223228D02*
D03*
X350591Y199803D02*
D03*
Y191929D02*
D03*
D18*
X292717Y227165D02*
D03*
X337795Y195866D02*
D03*
D19*
X298347Y263189D02*
D03*
X298347Y269094D02*
D03*
X309173Y276181D02*
D03*
X309173Y282087D02*
D03*
X315079Y282087D02*
D03*
X315079Y276181D02*
D03*
X309173Y269094D02*
D03*
Y263189D02*
D03*
X298347Y273425D02*
D03*
X298347Y279331D02*
D03*
D20*
X307796Y256299D02*
D03*
X301890Y256299D02*
D03*
X322756Y256299D02*
D03*
X328662Y256299D02*
D03*
X312323Y256299D02*
D03*
X318229Y256299D02*
D03*
X230512Y195276D02*
D03*
X236417D02*
D03*
D21*
X315236Y269783D02*
D03*
X315236Y266043D02*
D03*
X315236Y262303D02*
D03*
X325551Y262303D02*
D03*
X325551Y269783D02*
D03*
D22*
X347638Y172441D02*
D03*
X322441Y113595D02*
D03*
X106500Y259500D02*
D03*
D23*
X224803Y204724D02*
D03*
X230118D02*
D03*
X225295Y264567D02*
D03*
X230610D02*
D03*
D24*
X178740Y203346D02*
D03*
Y198228D02*
D03*
D25*
X178740Y209646D02*
D03*
Y215551D02*
D03*
D26*
X164567Y215748D02*
D03*
Y209449D02*
D03*
D27*
X172047Y215256D02*
D03*
Y209941D02*
D03*
X309055Y196555D02*
D03*
X309055Y191240D02*
D03*
X296260Y209961D02*
D03*
Y204646D02*
D03*
X329736Y196555D02*
D03*
Y191240D02*
D03*
X322835Y196555D02*
D03*
Y191240D02*
D03*
X315984Y196555D02*
D03*
Y191240D02*
D03*
D28*
X145669Y225000D02*
D03*
D29*
X154724Y200197D02*
D03*
X145669D02*
D03*
X136614D02*
D03*
D30*
X108268Y145669D02*
D03*
X127953D02*
D03*
X135827Y177165D02*
D03*
X155512D02*
D03*
D31*
X303839Y232559D02*
D03*
X306398D02*
D03*
X308957D02*
D03*
X311516D02*
D03*
X314075D02*
D03*
X316634D02*
D03*
X319193D02*
D03*
X321752D02*
D03*
X324311D02*
D03*
X326870D02*
D03*
X329429D02*
D03*
X331988D02*
D03*
X334547D02*
D03*
X337106D02*
D03*
Y209961D02*
D03*
X334547D02*
D03*
X331988D02*
D03*
X329429D02*
D03*
X326870D02*
D03*
X324311D02*
D03*
X321752Y209961D02*
D03*
X319193Y209961D02*
D03*
X316634D02*
D03*
X314075D02*
D03*
X311516D02*
D03*
X308957D02*
D03*
X306398D02*
D03*
X303839D02*
D03*
M02*
