G04*
G04 #@! TF.GenerationSoftware,Altium Limited,Altium Designer,18.1.7 (191)*
G04*
G04 Layer_Color=65535*
%FSLAX25Y25*%
%MOIN*%
G70*
G01*
G75*
%ADD10C,0.00984*%
%ADD11C,0.00787*%
%ADD12C,0.00800*%
%ADD13C,0.00500*%
%ADD14C,0.00591*%
%ADD15C,0.00394*%
%ADD16C,0.00492*%
G36*
X132775Y206102D02*
X132480Y207283D01*
X133071Y207283D01*
X134252Y206102D01*
X134252Y205315D01*
X132775Y206102D01*
D02*
G37*
G36*
X318622Y271949D02*
X320394Y271949D01*
X320394Y271555D01*
X319213Y270374D01*
X318622Y270374D01*
X318622Y271949D01*
D02*
G37*
D10*
X316949Y272736D02*
G03*
X316949Y272736I-492J0D01*
G01*
X131988Y200197D02*
G03*
X131988Y200197I-492J0D01*
G01*
D11*
X318819Y270374D02*
G03*
X320394Y271949I0J1575D01*
G01*
X192894Y214469D02*
G03*
X192894Y214469I-394J0D01*
G01*
X134252Y205512D02*
G03*
X132480Y207283I-1772J0D01*
G01*
X302618Y203780D02*
G03*
X302618Y203780I-394J0D01*
G01*
X293898Y232087D02*
X293898Y233071D01*
X284646D02*
X293898D01*
X284646Y221260D02*
X293898Y221260D01*
X293898Y222244D02*
X293898Y221260D01*
X296969Y266929D02*
X296969Y265354D01*
X299725Y265354D02*
X299725Y266929D01*
X304055Y254921D02*
X305630Y254921D01*
X304055Y257677D02*
X305630D01*
X324921Y257677D02*
X326496Y257677D01*
X324921Y254921D02*
X326496Y254921D01*
X307796Y279921D02*
X307796Y278346D01*
X310551Y279921D02*
X310551Y278346D01*
X316457Y279921D02*
X316457Y278346D01*
X313701D02*
X313701Y279921D01*
X318622Y271949D02*
X322166Y271949D01*
X318622Y260138D02*
X322166Y260138D01*
X318622Y271949D02*
X318622Y260138D01*
X322166Y271949D02*
X322166Y260138D01*
X318622Y270374D02*
X318819Y270374D01*
X310551Y265354D02*
X310552Y266929D01*
X307796Y266929D02*
X307796Y265354D01*
X296969Y277165D02*
X296969Y275591D01*
X299725Y277165D02*
X299725Y275590D01*
X314489Y257677D02*
X316063Y257677D01*
X314488Y254921D02*
X316063Y254921D01*
X294488Y155020D02*
X343307D01*
Y132382D02*
Y155020D01*
X294488Y132382D02*
X343307D01*
X294488D02*
Y155020D01*
X171358Y158268D02*
X183071Y158268D01*
X171358Y155610D02*
Y158268D01*
Y101575D02*
Y155610D01*
X194488Y158268D02*
X208366D01*
Y149705D02*
Y158268D01*
Y101575D02*
Y138091D01*
X171358Y101575D02*
X208366D01*
X232677Y196654D02*
X234252D01*
X232677Y193898D02*
X234252D01*
X336614Y200787D02*
Y201772D01*
X345866D01*
X336614Y189961D02*
X345866D01*
X336614Y190945D02*
X336614Y189961D01*
X228543Y122133D02*
X251772D01*
Y104417D02*
Y122133D01*
X228543Y104417D02*
X251772D01*
X228543D02*
Y122133D01*
Y152362D02*
X251772D01*
X251772Y134646D02*
X251772Y152362D01*
X228543Y134646D02*
X251772Y134646D01*
X228543Y134646D02*
Y152362D01*
Y183209D02*
X251772Y183209D01*
Y165493D02*
Y183209D01*
X228543Y165493D02*
X251772D01*
X228543D02*
Y183209D01*
X132480Y206201D02*
Y219882D01*
Y206201D02*
X133366Y205315D01*
X158858D01*
X134252D02*
Y205512D01*
X158858Y205315D02*
Y219882D01*
X132480Y219882D02*
X158858Y219882D01*
X105118Y132677D02*
Y141339D01*
Y132677D02*
X126772D01*
X131102Y137008D01*
Y141339D01*
X105118Y150000D02*
Y158661D01*
X126772D01*
X131102Y154331D01*
Y150000D02*
Y154331D01*
X132677Y164173D02*
Y172835D01*
Y164173D02*
X154331D01*
X158661Y168504D01*
Y172835D01*
X132677Y181496D02*
Y190157D01*
X154331Y190158D01*
X158661Y185827D01*
Y181496D02*
Y185827D01*
X152581Y284958D02*
Y290861D01*
X155533D01*
X156517Y289877D01*
Y287910D01*
X155533Y286926D01*
X152581D01*
X154549D02*
X156517Y284958D01*
X158485D02*
Y290861D01*
X161436D01*
X162420Y289877D01*
Y287910D01*
X161436Y286926D01*
X158485D01*
X164388Y284958D02*
X166356D01*
X165372D01*
Y288893D01*
X164388D01*
X175212Y284958D02*
Y290861D01*
X177179Y288893D01*
X179147Y290861D01*
Y284958D01*
X182099D02*
X184067D01*
X185051Y285942D01*
Y287910D01*
X184067Y288893D01*
X182099D01*
X181115Y287910D01*
Y285942D01*
X182099Y284958D01*
X188003Y289877D02*
Y288893D01*
X187019D01*
X188987D01*
X188003D01*
Y285942D01*
X188987Y284958D01*
X192922D02*
X194890D01*
X195874Y285942D01*
Y287910D01*
X194890Y288893D01*
X192922D01*
X191938Y287910D01*
Y285942D01*
X192922Y284958D01*
X197842Y288893D02*
Y284958D01*
Y286926D01*
X198826Y287910D01*
X199810Y288893D01*
X200794D01*
X209649Y290861D02*
Y284958D01*
X212601D01*
X213585Y285942D01*
Y289877D01*
X212601Y290861D01*
X209649D01*
X215553Y288893D02*
Y284958D01*
Y286926D01*
X216537Y287910D01*
X217521Y288893D01*
X218505D01*
X221456Y284958D02*
X223424D01*
X222440D01*
Y288893D01*
X221456D01*
X226376D02*
X228344Y284958D01*
X230312Y288893D01*
X235231Y284958D02*
X233264D01*
X232280Y285942D01*
Y287910D01*
X233264Y288893D01*
X235231D01*
X236215Y287910D01*
Y286926D01*
X232280D01*
X238183Y288893D02*
Y284958D01*
Y286926D01*
X239167Y287910D01*
X240151Y288893D01*
X241135D01*
X249991Y284958D02*
Y290861D01*
X252942D01*
X253926Y289877D01*
Y287910D01*
X252942Y286926D01*
X249991D01*
X251958D02*
X253926Y284958D01*
X258846D02*
X256878D01*
X255894Y285942D01*
Y287910D01*
X256878Y288893D01*
X258846D01*
X259830Y287910D01*
Y286926D01*
X255894D01*
X261798Y288893D02*
X263766Y284958D01*
X265733Y288893D01*
X273605Y289877D02*
X274589Y290861D01*
X276557D01*
X277541Y289877D01*
Y285942D01*
X276557Y284958D01*
X274589D01*
X273605Y285942D01*
Y289877D01*
X279508Y284958D02*
Y285942D01*
X280492D01*
Y284958D01*
X279508D01*
X288364D02*
X284428D01*
X288364Y288893D01*
Y289877D01*
X287380Y290861D01*
X285412D01*
X284428Y289877D01*
X157993Y281887D02*
Y275984D01*
X160944D01*
X161928Y276968D01*
Y277952D01*
Y278935D01*
X160944Y279919D01*
X157993D01*
X163896D02*
Y276968D01*
X164880Y275984D01*
X167832D01*
Y275000D01*
X166848Y274016D01*
X165864D01*
X167832Y275984D02*
Y279919D01*
X175704Y275984D02*
Y281887D01*
X178655D01*
X179639Y280903D01*
Y278935D01*
X178655Y277952D01*
X175704D01*
X181607Y279919D02*
Y275984D01*
Y277952D01*
X182591Y278935D01*
X183575Y279919D01*
X184559D01*
X188495Y275984D02*
X190463D01*
X191446Y276968D01*
Y278935D01*
X190463Y279919D01*
X188495D01*
X187511Y278935D01*
Y276968D01*
X188495Y275984D01*
X194398Y280903D02*
Y279919D01*
X193414D01*
X195382D01*
X194398D01*
Y276968D01*
X195382Y275984D01*
X201286D02*
X199318D01*
X198334Y276968D01*
Y278935D01*
X199318Y279919D01*
X201286D01*
X202270Y278935D01*
Y277952D01*
X198334D01*
X204238Y279919D02*
Y276968D01*
X205222Y275984D01*
X208173D01*
Y279919D01*
X210141Y275984D02*
X213093D01*
X214077Y276968D01*
X213093Y277952D01*
X211125D01*
X210141Y278935D01*
X211125Y279919D01*
X214077D01*
X225884Y281887D02*
X221948D01*
Y275984D01*
X225884D01*
X221948Y278935D02*
X223916D01*
X227852Y275984D02*
Y279919D01*
X230804D01*
X231788Y278935D01*
Y275984D01*
X235723Y274016D02*
X236707D01*
X237691Y275000D01*
Y279919D01*
X234739D01*
X233755Y278935D01*
Y276968D01*
X234739Y275984D01*
X237691D01*
X239659D02*
X241627D01*
X240643D01*
Y279919D01*
X239659D01*
X244579Y275984D02*
Y279919D01*
X247531D01*
X248515Y278935D01*
Y275984D01*
X253434D02*
X251466D01*
X250482Y276968D01*
Y278935D01*
X251466Y279919D01*
X253434D01*
X254418Y278935D01*
Y277952D01*
X250482D01*
X259338Y275984D02*
X257370D01*
X256386Y276968D01*
Y278935D01*
X257370Y279919D01*
X259338D01*
X260322Y278935D01*
Y277952D01*
X256386D01*
X262290Y279919D02*
Y275984D01*
Y277952D01*
X263274Y278935D01*
X264258Y279919D01*
X265241D01*
X268193Y275984D02*
X270161D01*
X269177D01*
Y279919D01*
X268193D01*
X273113Y275984D02*
Y279919D01*
X276065D01*
X277049Y278935D01*
Y275984D01*
X280984Y274016D02*
X281968D01*
X282952Y275000D01*
Y279919D01*
X280000D01*
X279016Y278935D01*
Y276968D01*
X280000Y275984D01*
X282952D01*
X303641Y167911D02*
X302657Y168895D01*
X300689D01*
X299705Y167911D01*
Y166927D01*
X300689Y165943D01*
X302657D01*
X303641Y164959D01*
Y163975D01*
X302657Y162991D01*
X300689D01*
X299705Y163975D01*
X306592Y167911D02*
Y166927D01*
X305608D01*
X307576D01*
X306592D01*
Y163975D01*
X307576Y162991D01*
X313480D02*
X311512D01*
X310528Y163975D01*
Y165943D01*
X311512Y166927D01*
X313480D01*
X314464Y165943D01*
Y164959D01*
X310528D01*
X316432Y161024D02*
Y166927D01*
X319383D01*
X320367Y165943D01*
Y163975D01*
X319383Y162991D01*
X316432D01*
X322335Y161024D02*
Y166927D01*
X325287D01*
X326271Y165943D01*
Y163975D01*
X325287Y162991D01*
X322335D01*
X331191D02*
X329223D01*
X328239Y163975D01*
Y165943D01*
X329223Y166927D01*
X331191D01*
X332174Y165943D01*
Y164959D01*
X328239D01*
X334142Y166927D02*
Y162991D01*
Y164959D01*
X335126Y165943D01*
X336110Y166927D01*
X337094D01*
X228345Y189959D02*
X227361Y190943D01*
X225393D01*
X224410Y189959D01*
Y188975D01*
X225393Y187991D01*
X227361D01*
X228345Y187007D01*
Y186023D01*
X227361Y185039D01*
X225393D01*
X224410Y186023D01*
X230313Y188975D02*
Y186023D01*
X231297Y185039D01*
X232281Y186023D01*
X233265Y185039D01*
X234249Y186023D01*
Y188975D01*
X236217Y185039D02*
X238184D01*
X237201D01*
Y188975D01*
X236217D01*
X242120Y189959D02*
Y188975D01*
X241136D01*
X243104D01*
X242120D01*
Y186023D01*
X243104Y185039D01*
X249992Y188975D02*
X247040D01*
X246056Y187991D01*
Y186023D01*
X247040Y185039D01*
X249992D01*
X251960Y190943D02*
Y185039D01*
Y187991D01*
X252943Y188975D01*
X254911D01*
X255895Y187991D01*
Y185039D01*
X224410Y161415D02*
Y155512D01*
X228345D01*
X230313D02*
X232281D01*
X231297D01*
Y159448D01*
X230313D01*
X235233Y155512D02*
Y159448D01*
X238184D01*
X239168Y158464D01*
Y155512D01*
X244088D02*
X242120D01*
X241136Y156496D01*
Y158464D01*
X242120Y159448D01*
X244088D01*
X245072Y158464D01*
Y157480D01*
X241136D01*
X248024Y159448D02*
X249992D01*
X250976Y158464D01*
Y155512D01*
X248024D01*
X247040Y156496D01*
X248024Y157480D01*
X250976D01*
X252943Y159448D02*
Y155512D01*
Y157480D01*
X253927Y158464D01*
X254911Y159448D01*
X255895D01*
X224408Y130904D02*
X223424Y131888D01*
X221456D01*
X220472Y130904D01*
Y126968D01*
X221456Y125984D01*
X223424D01*
X224408Y126968D01*
Y128936D01*
X222440D01*
X226376Y129920D02*
Y125984D01*
Y127952D01*
X227360Y128936D01*
X228344Y129920D01*
X229328D01*
X232280Y125984D02*
X234247D01*
X233264D01*
Y129920D01*
X232280D01*
X237199Y124016D02*
Y129920D01*
X240151D01*
X241135Y128936D01*
Y126968D01*
X240151Y125984D01*
X237199D01*
X243103Y124016D02*
Y129920D01*
X246055D01*
X247039Y128936D01*
Y126968D01*
X246055Y125984D01*
X243103D01*
X251958D02*
X249990D01*
X249007Y126968D01*
Y128936D01*
X249990Y129920D01*
X251958D01*
X252942Y128936D01*
Y127952D01*
X249007D01*
X254910Y129920D02*
Y125984D01*
Y127952D01*
X255894Y128936D01*
X256878Y129920D01*
X257862D01*
D12*
X225972Y176516D02*
G03*
X225972Y176516I-5500J0D01*
G01*
X265342D02*
G03*
X265342Y176516I-5500J0D01*
G01*
X225972Y145669D02*
G03*
X225972Y145669I-5500J0D01*
G01*
X265342Y145669D02*
G03*
X265342Y145669I-5500J0D01*
G01*
X225972Y115441D02*
G03*
X225972Y115441I-5500J0D01*
G01*
X265342D02*
G03*
X265342Y115441I-5500J0D01*
G01*
D13*
X136811Y167323D02*
X166339D01*
X136811Y88583D02*
Y167323D01*
Y88583D02*
X166339D01*
Y167323D01*
X188130Y222244D02*
Y250197D01*
X266870D02*
X266870Y222244D01*
X339764Y212402D02*
Y230118D01*
X301181Y212402D02*
X301181Y230118D01*
D14*
X227461Y201969D02*
Y207480D01*
X232972Y201968D02*
Y203150D01*
X221949Y201969D02*
X232972Y201968D01*
X221949Y201969D02*
Y203150D01*
Y206299D02*
Y207480D01*
X232972D01*
Y206299D02*
Y207480D01*
X227953Y261811D02*
Y267323D01*
X233465Y261811D02*
Y262992D01*
X222441Y261811D02*
X233465D01*
X222441D02*
Y262992D01*
Y266142D02*
Y267323D01*
X233465D01*
Y266142D02*
Y267323D01*
X175984Y200787D02*
X181496D01*
X180740Y205787D02*
X181496D01*
Y195787D02*
Y205787D01*
X180740Y195787D02*
X181496D01*
X175984D02*
X176740D01*
X175984D02*
Y205787D01*
X176740D01*
X175984Y218598D02*
X176740D01*
X175984Y206693D02*
Y218598D01*
Y207098D02*
X177740D01*
X179740D02*
X181496D01*
X181496Y206693D02*
Y218598D01*
X180740D02*
X181496D01*
X175984Y206598D02*
Y207098D01*
Y206598D02*
X177740D01*
Y207098D01*
X181496Y206598D02*
Y207098D01*
X179740Y206598D02*
X181496D01*
X179740D02*
Y207098D01*
X175984Y212598D02*
X177362D01*
X180118D02*
X181496D01*
X166535Y219291D02*
X168110D01*
Y205906D02*
Y219291D01*
X166535Y205906D02*
X168110D01*
X161024D02*
X162598D01*
X161024D02*
Y219291D01*
X162598D01*
X161024Y212598D02*
X168110D01*
X169291D02*
X174803D01*
X169291Y207087D02*
X170472D01*
X169291D02*
Y218110D01*
X170472D01*
X173622D02*
X174803D01*
Y207087D02*
Y218110D01*
X173622Y207087D02*
X174803D01*
X306299Y193898D02*
X311811D01*
X306299Y188386D02*
X307480D01*
X306299D02*
Y199409D01*
X307480D01*
X310630D02*
X311811D01*
Y188386D02*
Y199409D01*
X310630Y188386D02*
X311811D01*
X293504Y207303D02*
X299016D01*
X293504Y201791D02*
X294685D01*
X293504D02*
Y212815D01*
X294685D01*
X297835D02*
X299016D01*
Y201791D02*
Y212815D01*
X297835Y201791D02*
X299016D01*
X326980Y193898D02*
X332492D01*
X326980Y188386D02*
X328161D01*
X326980D02*
Y199409D01*
X328161D01*
X331311D02*
X332492D01*
Y188386D02*
Y199409D01*
X331311Y188386D02*
X332492D01*
X320079Y193898D02*
X325591D01*
X320079Y188386D02*
X321260D01*
X320079D02*
Y199409D01*
X321260D01*
X324409D02*
X325591D01*
Y188386D02*
Y199409D01*
X324409Y188386D02*
X325591D01*
X313228Y193898D02*
X318740D01*
X313228Y188386D02*
X314409D01*
X313228D02*
Y199409D01*
X314409D01*
X317559D02*
X318740D01*
Y188386D02*
Y199409D01*
X317559Y188386D02*
X318740D01*
D15*
X178740Y211909D02*
X179724Y213287D01*
X178740D02*
X179724D01*
X178740Y211909D02*
X179626D01*
X177854D02*
X178740D01*
X177756Y213287D02*
X178740D01*
X177756D02*
X178740Y211909D01*
D16*
X171850Y166141D02*
X170866D01*
X171358D01*
Y163681D01*
X170866Y163189D01*
X170374D01*
X169882Y163681D01*
X172834Y163189D02*
X173818D01*
X173326D01*
Y166141D01*
X172834Y165649D01*
X306024Y274410D02*
X303072D01*
Y275885D01*
X303564Y276377D01*
X304548D01*
X305040Y275885D01*
Y274410D01*
Y275393D02*
X306024Y276377D01*
Y277361D02*
Y278345D01*
Y277853D01*
X303072D01*
X303564Y277361D01*
X306024Y281789D02*
Y279821D01*
X304056Y281789D01*
X303564D01*
X303072Y281297D01*
Y280313D01*
X303564Y279821D01*
X295197Y272047D02*
X292245D01*
Y273523D01*
X292737Y274015D01*
X293721D01*
X294213Y273523D01*
Y272047D01*
Y273031D02*
X295197Y274015D01*
Y274999D02*
Y275983D01*
Y275491D01*
X292245D01*
X292737Y274999D01*
X295197Y277459D02*
Y278443D01*
Y277951D01*
X292245D01*
X292737Y277459D01*
X320197Y253051D02*
Y250099D01*
X318721D01*
X318229Y250591D01*
Y251575D01*
X318721Y252067D01*
X320197D01*
X319213D02*
X318229Y253051D01*
X317245D02*
X316261D01*
X316753D01*
Y250099D01*
X317245Y250591D01*
X314786D02*
X314294Y250099D01*
X313310D01*
X312818Y250591D01*
Y252559D01*
X313310Y253051D01*
X314294D01*
X314786Y252559D01*
Y250591D01*
X318229Y283465D02*
X321180D01*
Y281989D01*
X320688Y281497D01*
X319704D01*
X319213Y281989D01*
Y283465D01*
Y282481D02*
X318229Y281497D01*
X318721Y280513D02*
X318229Y280021D01*
Y279037D01*
X318721Y278545D01*
X320688D01*
X321180Y279037D01*
Y280021D01*
X320688Y280513D01*
X320196D01*
X319704Y280021D01*
Y278545D01*
X330040Y253051D02*
Y250099D01*
X328564D01*
X328072Y250591D01*
Y251575D01*
X328564Y252067D01*
X330040D01*
X329056D02*
X328072Y253051D01*
X327088Y250591D02*
X326596Y250099D01*
X325612D01*
X325120Y250591D01*
Y251083D01*
X325612Y251575D01*
X325120Y252067D01*
Y252559D01*
X325612Y253051D01*
X326596D01*
X327088Y252559D01*
Y252067D01*
X326596Y251575D01*
X327088Y251083D01*
Y250591D01*
X326596Y251575D02*
X325612D01*
X295197Y262205D02*
X292245D01*
Y263681D01*
X292737Y264173D01*
X293721D01*
X294213Y263681D01*
Y262205D01*
Y263189D02*
X295197Y264173D01*
X292245Y265157D02*
Y267124D01*
X292737D01*
X294705Y265157D01*
X295197D01*
X307992Y252756D02*
Y249804D01*
X306517D01*
X306025Y250296D01*
Y251280D01*
X306517Y251772D01*
X307992D01*
X307008D02*
X306025Y252756D01*
X303073Y249804D02*
X304057Y250296D01*
X305041Y251280D01*
Y252264D01*
X304549Y252756D01*
X303565D01*
X303073Y252264D01*
Y251772D01*
X303565Y251280D01*
X305041D01*
X277559Y236221D02*
Y239172D01*
X279035D01*
X279527Y238680D01*
Y237696D01*
X279035Y237204D01*
X277559D01*
X278543D02*
X279527Y236221D01*
X282479Y239172D02*
X280511D01*
Y237696D01*
X281495Y238188D01*
X281987D01*
X282479Y237696D01*
Y236713D01*
X281987Y236221D01*
X281003D01*
X280511Y236713D01*
X305630Y262598D02*
X302678D01*
Y264074D01*
X303170Y264566D01*
X304154D01*
X304646Y264074D01*
Y262598D01*
Y263582D02*
X305630Y264566D01*
Y267026D02*
X302678D01*
X304154Y265550D01*
Y267518D01*
X332204Y272736D02*
Y271752D01*
Y272244D01*
X329252D01*
Y272736D01*
Y271752D01*
X331712Y268308D02*
X332204Y268800D01*
Y269784D01*
X331712Y270276D01*
X329744D01*
X329252Y269784D01*
Y268800D01*
X329744Y268308D01*
X329252Y267325D02*
Y266341D01*
Y266833D01*
X332204D01*
X331712Y267325D01*
X133367Y104330D02*
X132875Y103838D01*
Y102854D01*
X133367Y102362D01*
X133859D01*
X134351Y102854D01*
Y103838D01*
X134843Y104330D01*
X135335D01*
X135827Y103838D01*
Y102854D01*
X135335Y102362D01*
X132875Y105314D02*
X135827D01*
X134843Y106298D01*
X135827Y107282D01*
X132875D01*
X136319Y108266D02*
Y110234D01*
X135827Y111218D02*
X132875D01*
Y112694D01*
X133367Y113186D01*
X134351D01*
X134843Y112694D01*
Y111218D01*
X132875Y114169D02*
X135827D01*
X134843Y115153D01*
X135827Y116137D01*
X132875D01*
X135827Y117121D02*
X132875D01*
Y118597D01*
X133367Y119089D01*
X134351D01*
X134843Y118597D01*
Y117121D01*
Y118105D02*
X135827Y119089D01*
X350590Y204646D02*
Y207597D01*
X352066D01*
X352558Y207105D01*
Y206122D01*
X352066Y205630D01*
X350590D01*
X351574D02*
X352558Y204646D01*
X353542Y207105D02*
X354034Y207597D01*
X355018D01*
X355510Y207105D01*
Y206613D01*
X355018Y206122D01*
X354526D01*
X355018D01*
X355510Y205630D01*
Y205138D01*
X355018Y204646D01*
X354034D01*
X353542Y205138D01*
X228346Y193307D02*
X225395D01*
Y194783D01*
X225887Y195275D01*
X226871D01*
X227362Y194783D01*
Y193307D01*
Y194291D02*
X228346Y195275D01*
Y198227D02*
Y196259D01*
X226379Y198227D01*
X225887D01*
X225395Y197735D01*
Y196751D01*
X225887Y196259D01*
X126959Y206386D02*
X129419D01*
X129911Y206878D01*
Y207862D01*
X129419Y208354D01*
X126959D01*
X129911Y211305D02*
Y209337D01*
X127943Y211305D01*
X127451D01*
X126959Y210813D01*
Y209829D01*
X127451Y209337D01*
X176870Y192520D02*
Y195472D01*
X178346D01*
X178838Y194980D01*
Y193996D01*
X178346Y193504D01*
X176870D01*
X177854D02*
X178838Y192520D01*
X179822D02*
X180806D01*
X180314D01*
Y195472D01*
X179822Y194980D01*
X224015Y210728D02*
X223523Y211220D01*
X222539D01*
X222047Y210728D01*
Y208760D01*
X222539Y208268D01*
X223523D01*
X224015Y208760D01*
X224999Y208268D02*
X225983D01*
X225491D01*
Y211220D01*
X224999Y210728D01*
X227459D02*
X227951Y211220D01*
X228935D01*
X229427Y210728D01*
Y208760D01*
X228935Y208268D01*
X227951D01*
X227459Y208760D01*
Y210728D01*
X162795Y222539D02*
X162303Y223030D01*
X161319D01*
X160827Y222539D01*
Y220571D01*
X161319Y220079D01*
X162303D01*
X162795Y220571D01*
X163779Y222539D02*
X164271Y223030D01*
X165254D01*
X165746Y222539D01*
Y222047D01*
X165254Y221555D01*
X164762D01*
X165254D01*
X165746Y221063D01*
Y220571D01*
X165254Y220079D01*
X164271D01*
X163779Y220571D01*
X123524Y166968D02*
X123032Y166476D01*
Y165492D01*
X123524Y165000D01*
X125492D01*
X125984Y165492D01*
Y166476D01*
X125492Y166968D01*
X125984Y169920D02*
Y167952D01*
X124016Y169920D01*
X123524D01*
X123032Y169428D01*
Y168444D01*
X123524Y167952D01*
X104330Y163877D02*
X103838Y164369D01*
X102854D01*
X102362Y163877D01*
Y161909D01*
X102854Y161417D01*
X103838D01*
X104330Y161909D01*
X105314Y161417D02*
X106298D01*
X105806D01*
Y164369D01*
X105314Y163877D01*
X328740Y202263D02*
X328248Y202755D01*
X327264D01*
X326772Y202263D01*
Y200295D01*
X327264Y199803D01*
X328248D01*
X328740Y200295D01*
X329724Y202755D02*
X331691D01*
Y202263D01*
X329724Y200295D01*
Y199803D01*
X314960Y202263D02*
X314468Y202755D01*
X313484D01*
X312992Y202263D01*
Y200295D01*
X313484Y199803D01*
X314468D01*
X314960Y200295D01*
X317912Y202755D02*
X315944D01*
Y201279D01*
X316928Y201771D01*
X317420D01*
X317912Y201279D01*
Y200295D01*
X317420Y199803D01*
X316436D01*
X315944Y200295D01*
X187933Y262794D02*
Y260334D01*
X188425Y259842D01*
X189409D01*
X189901Y260334D01*
Y262794D01*
X190885Y262302D02*
X191377Y262794D01*
X192361D01*
X192853Y262302D01*
Y261810D01*
X192361Y261318D01*
X191869D01*
X192361D01*
X192853Y260826D01*
Y260334D01*
X192361Y259842D01*
X191377D01*
X190885Y260334D01*
X175984Y222243D02*
Y219291D01*
X177460D01*
X177952Y219783D01*
Y221751D01*
X177460Y222243D01*
X175984D01*
X178936Y219291D02*
X179920D01*
X179428D01*
Y222243D01*
X178936Y221751D01*
X224802Y270570D02*
X224311Y271062D01*
X223327D01*
X222835Y270570D01*
Y268602D01*
X223327Y268110D01*
X224311D01*
X224802Y268602D01*
X225786Y268110D02*
X226770D01*
X226278D01*
Y271062D01*
X225786Y270570D01*
X228246Y268110D02*
X229230D01*
X228738D01*
Y271062D01*
X228246Y270570D01*
X308366Y202263D02*
X307874Y202755D01*
X306890D01*
X306398Y202263D01*
Y200295D01*
X306890Y199803D01*
X307874D01*
X308366Y200295D01*
X309349D02*
X309841Y199803D01*
X310825D01*
X311317Y200295D01*
Y202263D01*
X310825Y202755D01*
X309841D01*
X309349Y202263D01*
Y201771D01*
X309841Y201279D01*
X311317D01*
X295275Y216042D02*
X294783Y216534D01*
X293799D01*
X293307Y216042D01*
Y214075D01*
X293799Y213583D01*
X294783D01*
X295275Y214075D01*
X296259Y216042D02*
X296751Y216534D01*
X297735D01*
X298227Y216042D01*
Y215551D01*
X297735Y215059D01*
X298227Y214567D01*
Y214075D01*
X297735Y213583D01*
X296751D01*
X296259Y214075D01*
Y214567D01*
X296751Y215059D01*
X296259Y215551D01*
Y216042D01*
X296751Y215059D02*
X297735D01*
X171115Y221216D02*
X170623Y221708D01*
X169639D01*
X169147Y221216D01*
Y219248D01*
X169639Y218756D01*
X170623D01*
X171115Y219248D01*
X173575Y218756D02*
Y221708D01*
X172099Y220232D01*
X174067D01*
X321850Y202263D02*
X321358Y202755D01*
X320374D01*
X319882Y202263D01*
Y200295D01*
X320374Y199803D01*
X321358D01*
X321850Y200295D01*
X324802Y202755D02*
X323818Y202263D01*
X322834Y201279D01*
Y200295D01*
X323326Y199803D01*
X324310D01*
X324802Y200295D01*
Y200787D01*
X324310Y201279D01*
X322834D01*
X344251Y233858D02*
X341792D01*
X341300Y233366D01*
Y232382D01*
X341792Y231890D01*
X344251D01*
X341300Y230907D02*
Y229923D01*
Y230415D01*
X344251D01*
X343759Y230907D01*
M02*
