G04*
G04 #@! TF.GenerationSoftware,Altium Limited,Altium Designer,18.1.7 (191)*
G04*
G04 Layer_Color=16711935*
%FSLAX25Y25*%
%MOIN*%
G70*
G01*
G75*
%ADD49O,0.07290X0.10243*%
G04:AMPARAMS|DCode=50|XSize=86.68mil|YSize=63.06mil|CornerRadius=16.76mil|HoleSize=0mil|Usage=FLASHONLY|Rotation=180.000|XOffset=0mil|YOffset=0mil|HoleType=Round|Shape=RoundedRectangle|*
%AMROUNDEDRECTD50*
21,1,0.08668,0.02953,0,0,180.0*
21,1,0.05315,0.06306,0,0,180.0*
1,1,0.03353,-0.02657,0.01476*
1,1,0.03353,0.02657,0.01476*
1,1,0.03353,0.02657,-0.01476*
1,1,0.03353,-0.02657,-0.01476*
%
%ADD50ROUNDEDRECTD50*%
G04:AMPARAMS|DCode=51|XSize=86.68mil|YSize=63.06mil|CornerRadius=16.76mil|HoleSize=0mil|Usage=FLASHONLY|Rotation=270.000|XOffset=0mil|YOffset=0mil|HoleType=Round|Shape=RoundedRectangle|*
%AMROUNDEDRECTD51*
21,1,0.08668,0.02953,0,0,270.0*
21,1,0.05315,0.06306,0,0,270.0*
1,1,0.03353,-0.01476,-0.02657*
1,1,0.03353,-0.01476,0.02657*
1,1,0.03353,0.01476,0.02657*
1,1,0.03353,0.01476,-0.02657*
%
%ADD51ROUNDEDRECTD51*%
%ADD52C,0.14973*%
%ADD53O,0.06306X0.10243*%
%ADD54C,0.08400*%
%ADD55R,0.05321X0.05321*%
%ADD56C,0.05321*%
%ADD57C,0.02000*%
%ADD58C,0.02400*%
%ADD59C,0.07000*%
%ADD60C,0.11424*%
%ADD61C,0.03550*%
%ADD62C,0.05124*%
D49*
X323819Y145669D02*
D03*
X304134D02*
D03*
X313976D02*
D03*
X333661D02*
D03*
D50*
X188976Y155512D02*
D03*
Y131890D02*
D03*
D51*
X207480Y143701D02*
D03*
D52*
X153091Y111417D02*
D03*
Y148425D02*
D03*
Y129921D02*
D03*
D53*
X244094Y115440D02*
D03*
X236220D02*
D03*
X244094Y145669D02*
D03*
X236220D02*
D03*
X244094Y176516D02*
D03*
X236220D02*
D03*
D54*
X220472Y176516D02*
D03*
X259843D02*
D03*
X220472Y145669D02*
D03*
X259843D02*
D03*
X220472Y115441D02*
D03*
X259843D02*
D03*
D55*
X192500Y218898D02*
D03*
D56*
X202500D02*
D03*
X212500D02*
D03*
X222500D02*
D03*
X232500D02*
D03*
X242500D02*
D03*
X252500D02*
D03*
X262500D02*
D03*
Y253543D02*
D03*
X252500D02*
D03*
X242500Y253543D02*
D03*
X232500Y253543D02*
D03*
X222500D02*
D03*
X212500D02*
D03*
X202500D02*
D03*
X192500Y253543D02*
D03*
D57*
X303937Y225984D02*
D03*
Y221260D02*
D03*
Y216535D02*
D03*
X308661Y225984D02*
D03*
Y221260D02*
D03*
X308662Y216535D02*
D03*
X337008Y225984D02*
D03*
X337008Y221260D02*
D03*
Y216535D02*
D03*
X332283Y225984D02*
D03*
X332284Y221260D02*
D03*
Y216535D02*
D03*
D58*
X313386Y225984D02*
D03*
Y221260D02*
D03*
X313386Y216535D02*
D03*
X327559Y225984D02*
D03*
X327559Y221260D02*
D03*
X327559Y216535D02*
D03*
X322835Y225984D02*
D03*
Y221260D02*
D03*
Y216535D02*
D03*
X318110Y225984D02*
D03*
Y221260D02*
D03*
X318110Y216535D02*
D03*
D59*
X132953Y301693D02*
D03*
Y311693D02*
D03*
X142953Y301693D02*
D03*
Y311693D02*
D03*
X152953Y301693D02*
D03*
Y311693D02*
D03*
X162953Y301693D02*
D03*
Y311693D02*
D03*
X172953Y301693D02*
D03*
Y311693D02*
D03*
X182953Y301693D02*
D03*
Y311693D02*
D03*
X192953Y301693D02*
D03*
Y311693D02*
D03*
X202953Y301693D02*
D03*
Y311693D02*
D03*
X212953Y301693D02*
D03*
Y311693D02*
D03*
X222953Y301693D02*
D03*
Y311693D02*
D03*
X232953Y301693D02*
D03*
Y311693D02*
D03*
X242953Y301693D02*
D03*
Y311693D02*
D03*
X252953Y301693D02*
D03*
Y311693D02*
D03*
X262953Y301693D02*
D03*
Y311693D02*
D03*
X272953Y301693D02*
D03*
Y311693D02*
D03*
X282953Y301693D02*
D03*
Y311693D02*
D03*
X292953Y301693D02*
D03*
Y311693D02*
D03*
X302953Y301693D02*
D03*
Y311693D02*
D03*
X312953Y301693D02*
D03*
Y311693D02*
D03*
X322953Y301693D02*
D03*
Y311693D02*
D03*
D60*
X113780Y113780D02*
D03*
Y306693D02*
D03*
X342126D02*
D03*
Y113780D02*
D03*
D61*
X222500Y294488D02*
D03*
X273321Y231102D02*
D03*
X336614Y250000D02*
D03*
X260000Y230709D02*
D03*
X326772Y246063D02*
D03*
X293307Y243800D02*
D03*
Y252638D02*
D03*
X318898Y246063D02*
D03*
X298347Y284252D02*
D03*
X320393Y266043D02*
D03*
X253937Y268898D02*
D03*
X280315Y268911D02*
D03*
X119291Y278740D02*
D03*
X319685Y179134D02*
D03*
X306988Y181118D02*
D03*
X215748Y190157D02*
D03*
X259842Y247638D02*
D03*
X236614Y204724D02*
D03*
X140551Y282283D02*
D03*
X191600Y258300D02*
D03*
X324803Y173228D02*
D03*
X154724Y209449D02*
D03*
X136614Y192520D02*
D03*
X187000Y282600D02*
D03*
X339428Y182800D02*
D03*
X303700Y200600D02*
D03*
X336300Y201900D02*
D03*
X324311Y240400D02*
D03*
X333300Y187700D02*
D03*
X323917Y158595D02*
D03*
X315100Y202200D02*
D03*
X325000Y200700D02*
D03*
X322800Y204200D02*
D03*
X138000Y318500D02*
D03*
X215800Y204724D02*
D03*
D62*
X155118Y188594D02*
D03*
X350590Y288976D02*
D03*
X153017Y252788D02*
D03*
M02*
