G04*
G04 #@! TF.GenerationSoftware,Altium Limited,Altium Designer,18.1.7 (191)*
G04*
G04 Layer_Physical_Order=1*
G04 Layer_Color=255*
%FSLAX25Y25*%
%MOIN*%
G70*
G01*
G75*
%ADD17R,0.04724X0.04724*%
%ADD18R,0.05906X0.06299*%
%ADD19R,0.03543X0.02756*%
%ADD20R,0.02756X0.03543*%
%ADD21R,0.03937X0.02362*%
G04:AMPARAMS|DCode=22|XSize=39.37mil|YSize=39.37mil|CornerRadius=19.68mil|HoleSize=0mil|Usage=FLASHONLY|Rotation=0.000|XOffset=0mil|YOffset=0mil|HoleType=Round|Shape=RoundedRectangle|*
%AMROUNDEDRECTD22*
21,1,0.03937,0.00000,0,0,0.0*
21,1,0.00000,0.03937,0,0,0.0*
1,1,0.03937,0.00000,0.00000*
1,1,0.03937,0.00000,0.00000*
1,1,0.03937,0.00000,0.00000*
1,1,0.03937,0.00000,0.00000*
%
%ADD22ROUNDEDRECTD22*%
%ADD23R,0.03543X0.03937*%
%ADD24R,0.03740X0.03347*%
%ADD25R,0.03150X0.03150*%
%ADD26R,0.05512X0.05118*%
%ADD27R,0.03937X0.03543*%
%ADD28R,0.14961X0.07874*%
%ADD29R,0.05906X0.07874*%
%ADD30R,0.12598X0.06299*%
G04:AMPARAMS|DCode=31|XSize=61.81mil|YSize=16.14mil|CornerRadius=2.02mil|HoleSize=0mil|Usage=FLASHONLY|Rotation=90.000|XOffset=0mil|YOffset=0mil|HoleType=Round|Shape=RoundedRectangle|*
%AMROUNDEDRECTD31*
21,1,0.06181,0.01211,0,0,90.0*
21,1,0.05778,0.01614,0,0,90.0*
1,1,0.00404,0.00605,0.02889*
1,1,0.00404,0.00605,-0.02889*
1,1,0.00404,-0.00605,-0.02889*
1,1,0.00404,-0.00605,0.02889*
%
%ADD31ROUNDEDRECTD31*%
%ADD47R,0.38189X0.13386*%
%ADD57C,0.02000*%
%ADD63C,0.01378*%
%ADD64C,0.02402*%
%ADD65C,0.01968*%
%ADD66C,0.01772*%
%ADD67O,0.06890X0.09843*%
G04:AMPARAMS|DCode=68|XSize=82.68mil|YSize=59.06mil|CornerRadius=14.76mil|HoleSize=0mil|Usage=FLASHONLY|Rotation=180.000|XOffset=0mil|YOffset=0mil|HoleType=Round|Shape=RoundedRectangle|*
%AMROUNDEDRECTD68*
21,1,0.08268,0.02953,0,0,180.0*
21,1,0.05315,0.05906,0,0,180.0*
1,1,0.02953,-0.02657,0.01476*
1,1,0.02953,0.02657,0.01476*
1,1,0.02953,0.02657,-0.01476*
1,1,0.02953,-0.02657,-0.01476*
%
%ADD68ROUNDEDRECTD68*%
G04:AMPARAMS|DCode=69|XSize=82.68mil|YSize=59.06mil|CornerRadius=14.76mil|HoleSize=0mil|Usage=FLASHONLY|Rotation=270.000|XOffset=0mil|YOffset=0mil|HoleType=Round|Shape=RoundedRectangle|*
%AMROUNDEDRECTD69*
21,1,0.08268,0.02953,0,0,270.0*
21,1,0.05315,0.05906,0,0,270.0*
1,1,0.02953,-0.01476,-0.02657*
1,1,0.02953,-0.01476,0.02657*
1,1,0.02953,0.01476,0.02657*
1,1,0.02953,0.01476,-0.02657*
%
%ADD69ROUNDEDRECTD69*%
%ADD70C,0.14173*%
%ADD71O,0.05906X0.09843*%
%ADD72C,0.08000*%
%ADD73R,0.04921X0.04921*%
%ADD74C,0.04921*%
%ADD75C,0.06600*%
%ADD76C,0.11024*%
%ADD77C,0.03150*%
%ADD78C,0.04724*%
D17*
X279921Y231102D02*
D03*
Y223228D02*
D03*
X350591Y199803D02*
D03*
Y191929D02*
D03*
D18*
X292717Y227165D02*
D03*
X337795Y195866D02*
D03*
D19*
X298347Y263189D02*
D03*
X298347Y269094D02*
D03*
X309173Y276181D02*
D03*
X309173Y282087D02*
D03*
X315079Y282087D02*
D03*
X315079Y276181D02*
D03*
X309173Y269094D02*
D03*
Y263189D02*
D03*
X298347Y273425D02*
D03*
X298347Y279331D02*
D03*
D20*
X307796Y256299D02*
D03*
X301890Y256299D02*
D03*
X322756Y256299D02*
D03*
X328662Y256299D02*
D03*
X312323Y256299D02*
D03*
X318229Y256299D02*
D03*
X230512Y195276D02*
D03*
X236417D02*
D03*
D21*
X315236Y269783D02*
D03*
X315236Y266043D02*
D03*
X315236Y262303D02*
D03*
X325551Y262303D02*
D03*
X325551Y269783D02*
D03*
D22*
X347638Y172441D02*
D03*
X322441Y113595D02*
D03*
X106500Y259500D02*
D03*
D23*
X224803Y204724D02*
D03*
X230118D02*
D03*
X225295Y264567D02*
D03*
X230610D02*
D03*
D24*
X178740Y203346D02*
D03*
Y198228D02*
D03*
D25*
X178740Y209646D02*
D03*
Y215551D02*
D03*
D26*
X164567Y215748D02*
D03*
Y209449D02*
D03*
D27*
X172047Y215256D02*
D03*
Y209941D02*
D03*
X309055Y196555D02*
D03*
X309055Y191240D02*
D03*
X296260Y209961D02*
D03*
Y204646D02*
D03*
X329736Y196555D02*
D03*
Y191240D02*
D03*
X322835Y196555D02*
D03*
Y191240D02*
D03*
X315984Y196555D02*
D03*
Y191240D02*
D03*
D28*
X145669Y225000D02*
D03*
D29*
X154724Y200197D02*
D03*
X145669D02*
D03*
X136614D02*
D03*
D30*
X108268Y145669D02*
D03*
X127953D02*
D03*
X135827Y177165D02*
D03*
X155512D02*
D03*
D31*
X303839Y232559D02*
D03*
X306398D02*
D03*
X308957D02*
D03*
X311516D02*
D03*
X314075D02*
D03*
X316634D02*
D03*
X319193D02*
D03*
X321752D02*
D03*
X324311D02*
D03*
X326870D02*
D03*
X329429D02*
D03*
X331988D02*
D03*
X334547D02*
D03*
X337106D02*
D03*
Y209961D02*
D03*
X334547D02*
D03*
X331988D02*
D03*
X329429D02*
D03*
X326870D02*
D03*
X324311D02*
D03*
X321752Y209961D02*
D03*
X319193Y209961D02*
D03*
X316634D02*
D03*
X314075D02*
D03*
X311516D02*
D03*
X308957D02*
D03*
X306398D02*
D03*
X303839D02*
D03*
D47*
X320472Y221260D02*
D03*
D57*
X303937Y225984D02*
D03*
Y221260D02*
D03*
Y216535D02*
D03*
X308661Y225984D02*
D03*
Y221260D02*
D03*
X308662Y216535D02*
D03*
X313386Y225984D02*
D03*
Y221260D02*
D03*
X313386Y216535D02*
D03*
X337008Y225984D02*
D03*
X337008Y221260D02*
D03*
Y216535D02*
D03*
X332283Y225984D02*
D03*
X332284Y221260D02*
D03*
Y216535D02*
D03*
X327559Y225984D02*
D03*
X327559Y221260D02*
D03*
X327559Y216535D02*
D03*
X322835Y225984D02*
D03*
Y221260D02*
D03*
Y216535D02*
D03*
X318110Y225984D02*
D03*
Y221260D02*
D03*
X318110Y216535D02*
D03*
D63*
X222500Y294488D02*
X237008D01*
X260630Y270866D01*
Y261673D02*
Y270866D01*
X252500Y253543D02*
X260630Y261673D01*
X262500Y220281D02*
X273321Y231102D01*
X273321Y231102D01*
X279921D01*
X336614Y250000D02*
Y263779D01*
X330610Y269783D02*
X336614Y263779D01*
X325551Y269783D02*
X330610D01*
X276746Y240919D02*
Y277300D01*
X254724Y218898D02*
X276746Y240919D01*
X252500Y218898D02*
X254724D01*
X260000Y230709D02*
Y247480D01*
X259842Y247638D02*
X260000Y247480D01*
X326772Y246063D02*
X328662Y247953D01*
Y256299D01*
X116433Y269000D02*
X253937D01*
X308642Y248445D02*
X319193Y237894D01*
X282264Y248445D02*
X308642D01*
X280315Y250394D02*
X282264Y248445D01*
X292717Y227165D02*
X293307Y227756D01*
Y243800D01*
Y252638D02*
X296969Y256299D01*
X301890D01*
X292953Y301693D02*
X309173Y285473D01*
Y282087D02*
Y285473D01*
X298347Y259843D02*
X301890Y256299D01*
X298347Y259843D02*
Y263189D01*
X298347Y273425D02*
X298347Y273425D01*
Y269094D02*
Y273425D01*
X309173Y282087D02*
X309173Y282087D01*
X315079D01*
X309173Y263189D02*
X310059Y262303D01*
X315236D01*
X322756Y256299D02*
X325551Y259095D01*
Y262303D01*
X322756Y256299D02*
X322756Y256299D01*
X318229Y256299D02*
X322756D01*
X307796Y256299D02*
Y261811D01*
X309173Y263189D01*
Y269094D02*
X309862Y269783D01*
X315236D01*
X315079Y276181D02*
X315236Y276024D01*
Y269783D02*
Y276024D01*
X280315Y250394D02*
Y268911D01*
X319193Y232559D02*
Y237894D01*
X333465Y145669D02*
Y169835D01*
X324166Y179134D02*
X333465Y169835D01*
X323917Y145669D02*
Y158595D01*
X313976Y145669D02*
Y162402D01*
Y142618D02*
Y145669D01*
Y162402D02*
X324803Y173228D01*
X313976Y142618D02*
X314862Y141732D01*
X306988Y160335D02*
Y181118D01*
X304134Y157480D02*
X306988Y160335D01*
X304134Y145669D02*
Y157480D01*
X333300Y187700D02*
Y200197D01*
X330673D02*
X333300D01*
X326870Y204000D02*
X330673Y200197D01*
X182795Y286805D02*
Y301693D01*
Y286805D02*
X187000Y282600D01*
X212953Y301693D02*
X212992Y301654D01*
Y288189D02*
Y301654D01*
X119290Y278755D02*
X203558D01*
X212992Y288189D01*
X319685Y179134D02*
X324166D01*
X337008Y221260D02*
Y223600D01*
X322835Y221260D02*
Y225984D01*
X332284Y216535D02*
Y221260D01*
X327559Y218800D02*
Y221260D01*
X322835Y216535D02*
Y221260D01*
X313386D02*
Y225984D01*
X303839Y230300D02*
X303937D01*
Y221260D02*
Y225984D01*
Y216535D02*
Y221260D01*
X331988Y209900D02*
X334547D01*
X212598Y187008D02*
X215748Y190157D01*
X212598Y153543D02*
Y187008D01*
Y153543D02*
X220472Y145669D01*
X236614Y204724D02*
X236614Y204724D01*
X230118Y204724D02*
X236614D01*
X140551Y289291D02*
X152953Y301693D01*
X140551Y282283D02*
Y289291D01*
X191600Y258300D02*
X193600D01*
X272953Y281093D02*
Y301693D01*
Y281093D02*
X276746Y277300D01*
X242500Y218898D02*
X253150Y208248D01*
Y166929D02*
Y208248D01*
X244094Y157874D02*
X253150Y166929D01*
X244094Y145669D02*
Y157874D01*
X110000Y275433D02*
X116433Y269000D01*
X110000Y275433D02*
Y283000D01*
X123000Y296000D01*
X248600Y168400D02*
Y203762D01*
X237402Y214961D02*
X248600Y203762D01*
X237402Y214961D02*
Y248445D01*
X182795Y301693D02*
X182953D01*
X162953Y299953D02*
Y301693D01*
X178800Y203346D02*
Y209646D01*
X334547Y205019D02*
Y209900D01*
X339428Y182800D02*
X341461D01*
X350591Y191929D01*
X324311Y232559D02*
Y240400D01*
X197500Y223898D02*
X202500Y218898D01*
X197500Y223898D02*
Y254400D01*
X193600Y258300D02*
X197500Y254400D01*
X326870Y204000D02*
Y209961D01*
X314075Y203225D02*
X315100Y202200D01*
X314075Y203225D02*
Y209961D01*
X339428Y197244D02*
Y203750D01*
X338159Y205019D02*
X339428Y203750D01*
X334547Y205019D02*
X338159D01*
X319193Y202500D02*
Y209961D01*
Y202500D02*
X320993Y200700D01*
X325000D01*
X321752Y205248D02*
Y209961D01*
Y205248D02*
X322800Y204200D01*
X237402Y248445D02*
X242500Y253543D01*
X231700Y151500D02*
X248600Y168400D01*
X231700Y130120D02*
Y151500D01*
Y130120D02*
X236220Y125600D01*
Y115440D02*
Y125600D01*
X215800Y204724D02*
X224803D01*
X244094Y143700D02*
Y145669D01*
X230118Y203318D02*
Y204724D01*
X306398Y206043D02*
Y209961D01*
X305000Y204646D02*
X306398Y206043D01*
X296260Y204646D02*
X305000D01*
X242500Y253543D02*
Y258667D01*
X236600Y264567D02*
X242500Y258667D01*
X230610Y264567D02*
X236600D01*
X212500Y253543D02*
Y262067D01*
X215000Y264567D01*
X225295D01*
X337008Y216535D02*
X337106Y216437D01*
Y209961D02*
Y216437D01*
X303839Y230300D02*
Y232559D01*
X303937Y225984D02*
Y230300D01*
X178740Y209646D02*
X178800D01*
X178740Y203346D02*
X178800D01*
X334547Y209900D02*
Y209961D01*
X331988Y209900D02*
Y209961D01*
X337008Y223600D02*
Y225984D01*
X337008Y223600D02*
X337008Y223600D01*
X327559Y218800D02*
X327559Y218800D01*
Y216535D02*
Y218800D01*
X320472Y221260D02*
X322835D01*
X318110D02*
X320472D01*
X296260Y209961D02*
X303839D01*
X308957Y203298D02*
Y209961D01*
Y203298D02*
X309055Y203200D01*
Y196555D02*
Y203200D01*
X236417Y185897D02*
Y195276D01*
X236220Y185700D02*
X236417Y185897D01*
X236220Y176516D02*
Y185700D01*
X262953Y311047D02*
Y311693D01*
X242953Y310547D02*
Y311693D01*
X232693D02*
X232953D01*
X212953Y308953D02*
Y311693D01*
X142953Y299953D02*
Y301693D01*
X139000Y296000D02*
X142953Y299953D01*
X123000Y296000D02*
X139000D01*
D64*
X312323Y252638D02*
X318898Y246063D01*
X312323Y252638D02*
Y256299D01*
X298347Y284252D02*
X298347Y284252D01*
X298347Y279331D02*
Y284252D01*
X320393Y266043D02*
X320393Y266043D01*
X315236Y266043D02*
X320393D01*
X305512Y276181D02*
X309173D01*
X302362Y279331D02*
X305512Y276181D01*
X298347Y279331D02*
X302362D01*
X164567Y215748D02*
X172047D01*
Y215256D02*
X178740D01*
X267323Y258366D02*
Y281677D01*
X262500Y253543D02*
X267323Y258366D01*
X258100Y290900D02*
X267323Y281677D01*
X130709Y230315D02*
X153100Y252706D01*
X164567Y209400D02*
X172047D01*
X154649Y209449D02*
X164567D01*
X136614Y188987D02*
Y200197D01*
X108200Y145669D02*
Y152665D01*
X350591Y199803D02*
Y288976D01*
X350590Y288976D02*
X350591Y288976D01*
X328500Y298062D02*
X343701Y282861D01*
Y249519D02*
Y282861D01*
X333465Y239283D02*
X343701Y249519D01*
X328500Y298062D02*
Y316000D01*
X258002Y290900D02*
X258100D01*
X258002Y318500D02*
X326000D01*
X149760D02*
X258002D01*
X258100Y318504D01*
X306299Y185827D02*
X316142D01*
X299426Y192700D02*
X306299Y185827D01*
X276027Y192700D02*
X299426D01*
X322835Y187401D02*
Y191240D01*
X321260Y185827D02*
X322835Y187401D01*
X316142Y185827D02*
X321260D01*
X315984Y185984D02*
X316142Y185827D01*
X315984Y185984D02*
Y191240D01*
X333465Y182677D02*
X350591Y199803D01*
X331102Y182677D02*
X333465D01*
X329736Y184043D02*
X331102Y182677D01*
X329736Y184043D02*
Y191240D01*
X216122Y195276D02*
X230512D01*
X192500Y218898D02*
X216122Y195276D01*
X130709Y206102D02*
Y230315D01*
Y206102D02*
X136614Y200197D01*
X259843Y176516D02*
X276027Y192700D01*
X138000Y318500D02*
X149760D01*
X164567Y209400D02*
Y209449D01*
Y203661D02*
Y209400D01*
X307654Y191240D02*
X309055D01*
X303700Y195194D02*
X307654Y191240D01*
X303700Y195194D02*
Y200600D01*
X315500Y196555D02*
X315984D01*
X309055Y191240D02*
X309800D01*
X182087Y218898D02*
X192500D01*
X178740Y215551D02*
X182087Y218898D01*
X135827Y177165D02*
X136614Y188987D01*
X315984Y196555D02*
X322835D01*
X170000Y198228D02*
X178740D01*
X164567Y203661D02*
X170000Y198228D01*
X322835Y191240D02*
X329736D01*
X322835Y196555D02*
X329736D01*
X108200Y145669D02*
X108268D01*
X108200Y152665D02*
X132700Y177165D01*
X135827D01*
X164567Y215748D02*
Y220000D01*
X159567Y225000D02*
X164567Y220000D01*
X145669Y225000D02*
X159567D01*
X172047Y209400D02*
Y209941D01*
Y215256D02*
Y215748D01*
X178740Y215256D02*
Y215551D01*
X192500Y218898D02*
Y253543D01*
X145669Y212500D02*
Y225000D01*
Y212500D02*
X145669Y212500D01*
Y200197D02*
Y212500D01*
X154724Y188987D02*
Y200197D01*
Y188987D02*
X155512Y188200D01*
Y177165D02*
Y188200D01*
Y163721D02*
Y177165D01*
X153091Y161300D02*
X155512Y163721D01*
X153091Y148031D02*
Y161300D01*
X141662Y148031D02*
X153091D01*
X139300Y145669D02*
X141662Y148031D01*
X127953Y145669D02*
X139300D01*
X292953Y310047D02*
Y311693D01*
X326000Y318500D02*
X328500Y316000D01*
X142953Y311693D02*
X149760Y318500D01*
D65*
X258002Y290900D02*
Y318500D01*
X333465Y239283D02*
X334547Y238200D01*
X331988Y237806D02*
X333465Y239283D01*
X331988Y232559D02*
Y237806D01*
X334547Y232559D02*
Y238200D01*
X335500Y202700D02*
X336300Y201900D01*
X333000Y202700D02*
X335500D01*
X329429Y206271D02*
X333000Y202700D01*
X329429Y206271D02*
Y209961D01*
X311516Y200539D02*
Y209961D01*
Y200539D02*
X315500Y196555D01*
D66*
X309800Y191240D02*
X315500Y196555D01*
D67*
X323819Y145669D02*
D03*
X304134D02*
D03*
X313976D02*
D03*
X333661D02*
D03*
D68*
X188976Y155512D02*
D03*
Y131890D02*
D03*
D69*
X207480Y143701D02*
D03*
D70*
X153091Y111417D02*
D03*
Y148425D02*
D03*
Y129921D02*
D03*
D71*
X244094Y115440D02*
D03*
X236220D02*
D03*
X244094Y145669D02*
D03*
X236220D02*
D03*
X244094Y176516D02*
D03*
X236220D02*
D03*
D72*
X220472Y176516D02*
D03*
X259843D02*
D03*
X220472Y145669D02*
D03*
X259843D02*
D03*
X220472Y115441D02*
D03*
X259843D02*
D03*
D73*
X192500Y218898D02*
D03*
D74*
X202500D02*
D03*
X212500D02*
D03*
X222500D02*
D03*
X232500D02*
D03*
X242500D02*
D03*
X252500D02*
D03*
X262500D02*
D03*
Y253543D02*
D03*
X252500D02*
D03*
X242500Y253543D02*
D03*
X232500Y253543D02*
D03*
X222500D02*
D03*
X212500D02*
D03*
X202500D02*
D03*
X192500Y253543D02*
D03*
D75*
X132953Y301693D02*
D03*
Y311693D02*
D03*
X142953Y301693D02*
D03*
Y311693D02*
D03*
X152953Y301693D02*
D03*
Y311693D02*
D03*
X162953Y301693D02*
D03*
Y311693D02*
D03*
X172953Y301693D02*
D03*
Y311693D02*
D03*
X182953Y301693D02*
D03*
Y311693D02*
D03*
X192953Y301693D02*
D03*
Y311693D02*
D03*
X202953Y301693D02*
D03*
Y311693D02*
D03*
X212953Y301693D02*
D03*
Y311693D02*
D03*
X222953Y301693D02*
D03*
Y311693D02*
D03*
X232953Y301693D02*
D03*
Y311693D02*
D03*
X242953Y301693D02*
D03*
Y311693D02*
D03*
X252953Y301693D02*
D03*
Y311693D02*
D03*
X262953Y301693D02*
D03*
Y311693D02*
D03*
X272953Y301693D02*
D03*
Y311693D02*
D03*
X282953Y301693D02*
D03*
Y311693D02*
D03*
X292953Y301693D02*
D03*
Y311693D02*
D03*
X302953Y301693D02*
D03*
Y311693D02*
D03*
X312953Y301693D02*
D03*
Y311693D02*
D03*
X322953Y301693D02*
D03*
Y311693D02*
D03*
D76*
X113780Y113780D02*
D03*
Y306693D02*
D03*
X342126D02*
D03*
Y113780D02*
D03*
D77*
X222500Y294488D02*
D03*
X273321Y231102D02*
D03*
X336614Y250000D02*
D03*
X260000Y230709D02*
D03*
X326772Y246063D02*
D03*
X293307Y243800D02*
D03*
Y252638D02*
D03*
X318898Y246063D02*
D03*
X298347Y284252D02*
D03*
X320393Y266043D02*
D03*
X253937Y268898D02*
D03*
X280315Y268911D02*
D03*
X119291Y278740D02*
D03*
X319685Y179134D02*
D03*
X306988Y181118D02*
D03*
X215748Y190157D02*
D03*
X259842Y247638D02*
D03*
X236614Y204724D02*
D03*
X140551Y282283D02*
D03*
X191600Y258300D02*
D03*
X324803Y173228D02*
D03*
X154724Y209449D02*
D03*
X136614Y192520D02*
D03*
X187000Y282600D02*
D03*
X339428Y182800D02*
D03*
X303700Y200600D02*
D03*
X336300Y201900D02*
D03*
X324311Y240400D02*
D03*
X333300Y187700D02*
D03*
X323917Y158595D02*
D03*
X315100Y202200D02*
D03*
X325000Y200700D02*
D03*
X322800Y204200D02*
D03*
X138000Y318500D02*
D03*
X215800Y204724D02*
D03*
D78*
X155118Y188594D02*
D03*
X350590Y288976D02*
D03*
X153017Y252788D02*
D03*
M02*
