M48
;Layer_Color=9474304
;FILE_FORMAT=2:5
INCH,LZ
;TYPE=PLATED
T1F00S00C0.01000
T2F00S00C0.01550
T3F00S00C0.02362
T4F00S00C0.02402
T5F00S00C0.03543
T7F00S00C0.04000
T8F00S00C0.04331
T9F00S00C0.07283
;TYPE=NON_PLATED
T10F00S00C0.11024
%
T01
X0313386Y0216535
X031811
X0322835
Y022126
X0327559
X0332284
X0337008
Y0216535
X0332284
X0327559
Y0225984
X0332283
X0337008
X0322835
X031811
X0313386
Y022126
X031811
X0308661
X0303937
Y0225984
X0308661
X0308662Y0216535
X0303937
T02
X0323917Y0158595
X0324803Y0173228
X0319685Y0179134
X03333Y01877
X0339428Y01828
X03363Y02019
X0325Y02007
X03228Y02042
X03151Y02022
X0324311Y02404
X0326772Y0246063
X0318898
X0320393Y0266043
X0336614Y025
X0293307Y0252638
Y02438
X0273321Y0231102
X026Y0230709
X0259842Y0247638
X0253937Y0268898
X0280315Y0268911
X0298347Y0284252
X02225Y0294488
X0187Y02826
X01916Y02583
X02158Y0204724
X0215748Y0190157
X0236614Y0204724
X03037Y02006
X0306988Y0181118
X0154724Y0209449
X0136614Y019252
X0140551Y0282283
X0119291Y027874
X0138Y03185
T03
X0153017Y0252788
T04
X035059Y0288976
X0155118Y0188594
T05
X023622Y011544
X0244094
Y0145669
X023622
X0312953Y0301693
Y0311693
X0322953
Y0301693
X0302953
X0292953
X0282953
X0272953
X0262953
X0252953
X0242953
X0232953
X0222953
X0212953
X0202953
X0192953
X0182953
X0172953
X0162953
Y0311693
X0172953
X0182953
X0192953
X0202953
X0212953
X0222953
X0232953
X0242953
X0252953
X0262953
X0272953
X0282953
X0292953
X0302953
X02625Y0253543
X02525
X02425Y0253543
X02325Y0253543
X02225
X02125
X02025
X01925Y0253543
Y0218898
X02025
X02125
X02225
X02325
X02425
X02525
X02625
X0244094Y0176516
X023622
X0152953Y0301693
X0142953
X0132953
Y0311693
X0142953
X0152953
T07
X0220472Y0115441
Y0145669
X0259843
Y0115441
Y0176516
X0220472
T08
X0304134Y0145669
X0313976
X0323819
X0333661
T09
X0153091Y0111417
Y0129921
Y0148425
T10
X011378Y011378
X0342126
Y0306693
X011378
M30
